# xmcd
#
# Track frame offsets: 
#        150
#        9996
#        21625
#        31768
#        42691
#        55014
#        66421
#        76459
#        85494
#        97539
#        107051
#        118958
#        132390
#        144839
#        155342
#        166562
#
# Disc length: 2455 seconds
#
# Revision: 0
# Processed by: cddbd v1.5.2PL0 Copyright (c) Steve Scherf et al.
# Submitted via: ExactAudioCopy v0.99pb5
#
DISCID=ca099510
DTITLE=Va  - A History of Garage and Frat Bands In Memphis 1960-1975 V
DTITLE=ol. 2  
DYEAR=1900
DGENRE=
TTITLE0=The Breakers - Don't Send Me No Flowers  
TTITLE1=Ole Miss Downbeats - Geraldine  
TTITLE2=The Shades - Shady Lady  
TTITLE3=The Percussions - Your Love  
TTITLE4=The Merits - Please, Please Little Girl  
TTITLE5=The Scepters - Little Girls Were Made to Love 
TTITLE6=The Chasers - I Need Your Lovin'  
TTITLE7=The Ponees - Move It, Groove It  
TTITLE8=Tommy Burk and the Counts - Stormy Weather  
TTITLE9=Lawson and Four More - Back for More  
TTITLE10=Ricky and the Rainbows - Going Out of My Mind  
TTITLE11=The Goodees - Condition Red  
TTITLE12=Memphis Nomads - I Wanna Be  
TTITLE13=Village Sound - Sally's Got a Good Thing  
TTITLE14=Honey Jug - Warm City Baby  
TTITLE15=Los Angeles Smog Division - Blue Green  
EXTD=
EXTT0=
EXTT1=
EXTT2=
EXTT3=
EXTT4=
EXTT5=
EXTT6=
EXTT7=
EXTT8=
EXTT9=
EXTT10=
EXTT11=
EXTT12=
EXTT13=
EXTT14=
EXTT15=
PLAYORDER=
